<svg clip-rule="evenodd" stroke-linejoin="round" stroke-miterlimit="1.4" width="75" height="74.9" xmlns="http://www.w3.org/2000/svg"><path d="M13.4 37.7 12 36.3a16.7 16.7 0 0 1-4.2-16.5A10 10 0 1 1 19.9 8.4c5.4-1.3 11.3.2 15.5 4.4l.6.6-7.4 7.4-.6-.6a6.2 6.2 0 0 0-8.7 8.7l16.6 16.6-7.4 7.4-7.8-7.8Z" fill="#7ac143"/><path d="m21.7 29.5 16.6-16.6a16.8 16.8 0 0 1 16.4-4.2A10 10 0 1 1 65.9 20c1.6 5.6.2 11.9-4.2 16.3l-.6.6-7.2-7.4.6-.6a6.2 6.2 0 0 0-8.7-8.7L29.2 36.8Z" fill="#f9a541"/><path d="M55 66.8c-5.7 1.7-12.1.4-16.6-4.1l-.6-.6 7.4-7.4.6.6a6.2 6.2 0 0 0 8.7-8.7L37.9 30l7.4-7.4L62 39.3A16.8 16.8 0 0 1 66.4 55 10 10 0 0 1 65 74.9c-5-.1-9.1-3.6-10-8.1z" fill="#f44321"/><path d="M52.1 46 35.5 62.6A16.6 16.6 0 0 1 19.8 67 10 10 0 0 1 0 64.8a10 10 0 0 1 7.7-9.7c-1.4-5.6 0-11.6 4.3-15.9l.6-.6L20 46l-.6.6a6.2 6.2 0 0 0 8.7 8.7l16.6-16.6Z" fill="#5091cd"/></svg>